<svg xmlns="http://www.w3.org/2000/svg" viewBox="0 0 720 300" role="img" aria-label="Knäböj i tre steg"><rect width="720" height="300" rx="28" fill="#f7f3e9"/><defs><g id="stand"><circle cx="0" cy="24" r="22" fill="#efaa7d"/><path d="M-18 12q18-27 36 0v-9q-18-24-36 0z" fill="#293b35"/><path d="M-27 54Q0 39 27 54l12 83H-39z" fill="#477665"/><path d="M-33 62-55 137M33 62l55 75" stroke="#efaa7d" stroke-width="18" stroke-linecap="round"/><path d="M-21 137-29 235M21 137l29 98" stroke="#477665" stroke-width="25" stroke-linecap="round"/><path d="m-32 239-25 7m110-7 25 7" stroke="#173f35" stroke-width="13" stroke-linecap="round"/></g><g id="squat"><circle cx="0" cy="22" r="22" fill="#efaa7d"/><path d="M-18 10q18-27 36 0V1q-18-24-36 0z" fill="#293b35"/><path d="M-28 52Q0 38 28 52l15 78H-43z" fill="#477665"/><path d="M-30 65-4 103M30 65 4 103" stroke="#efaa7d" stroke-width="18" stroke-linecap="round"/><path d="M-25 129-77 166l-24 64M25 129l77 37 24 64" stroke="#477665" stroke-width="25" stroke-linecap="round"/><path d="m-104 234-23 4m256-4 23 4" stroke="#173f35" stroke-width="13" stroke-linecap="round"/></g></defs><use href="#stand" transform="translate(110 28)"/><use href="#squat" transform="translate(360 68)"/><use href="#stand" transform="translate(610 28)"/><g fill="#d57a55"><path d="m230 145 24-14v28z"/><path d="m480 145 24-14v28z"/></g></svg>
