<svg xmlns="http://www.w3.org/2000/svg" viewBox="0 0 720 300" role="img" aria-label="Tandembalans i tre steg"><rect width="720" height="300" rx="28" fill="#f7f3e9"/><defs><g id="normal"><circle cx="0" cy="24" r="22" fill="#efaa7d"/><path d="M-18 13q18-25 36 0V5q-18-22-36 0z" fill="#293b35"/><path d="M-30 54Q0 40 30 54l10 91H-40z" fill="#477665"/><path d="M-30 67-55 137M30 67l55 70" stroke="#efaa7d" stroke-width="19" stroke-linecap="round"/><path d="M-22 145-28 242M22 145l28 97" stroke="#173f35" stroke-width="26" stroke-linecap="round"/></g><g id="balance"><circle cx="0" cy="24" r="22" fill="#efaa7d"/><path d="M-18 13q18-25 36 0V5q-18-22-36 0z" fill="#293b35"/><path d="M-30 54Q0 40 30 54l10 91H-40z" fill="#477665"/><path d="M-30 67-76 45M30 67l76-22" stroke="#efaa7d" stroke-width="19" stroke-linecap="round"/><path d="M-15 145-10 242M15 145l10 97" stroke="#173f35" stroke-width="26" stroke-linecap="round"/><path d="M-13 247h55" stroke="#d57a55" stroke-width="10" stroke-linecap="round"/></g></defs><use href="#normal" transform="translate(110 25)"/><use href="#balance" transform="translate(360 25)"/><use href="#balance" transform="translate(610 25)"/><path d="M38 284h144m106 0h144m106 0h144" stroke="#89a197" stroke-width="5"/><g fill="#d57a55"><path d="m230 145 24-14v28z"/><path d="m480 145 24-14v28z"/></g></svg>
